{"asset":{"version":"2.0","generator":"babylon.js glTF exporter for 3dsmax 2019 v20210624.1"},"scene":0,"scenes":[{"nodes":[0,1,2,3,4]}],"nodes":[{"mesh":0,"translation":[0.0,0.0,0.253483444],"name":"Cardboard Box"},{"mesh":1,"translation":[0.007873453,0.0,-0.0133733116],"name":"Sidewalk"},{"mesh":2,"translation":[-0.009885055,1.23822474,-0.8980996],"rotation":[0.7071068,0.0,0.0,0.7071067],"name":"Building"},{"mesh":3,"translation":[0.0567153133,0.5609802,0.3455956],"rotation":[0.7071068,0.0,0.0,0.7071067],"scale":[0.145672917,1.0,0.145672917],"name":"Augmently"},{"mesh":4,"translation":[0.0567153133,0.5609802,0.3455956],"rotation":[0.7071068,0.0,0.0,0.7071067],"scale":[0.145672917,1.0,0.145672917],"name":"SH"}],"meshes":[{"primitives":[{"attributes":{"POSITION":1,"NORMAL":2,"TEXCOORD_0":3},"indices":0,"material":0}],"name":"Cardboard Box"},{"primitives":[{"attributes":{"POSITION":5,"NORMAL":6,"TEXCOORD_0":7},"indices":4,"material":1}],"name":"Sidewalk"},{"primitives":[{"attributes":{"POSITION":9,"NORMAL":10,"TEXCOORD_0":11},"indices":8,"material":2}],"name":"Building"},{"primitives":[{"attributes":{"POSITION":13,"NORMAL":14},"indices":12,"material":3}],"name":"Augmently"},{"primitives":[{"attributes":{"POSITION":16,"NORMAL":17},"indices":15,"material":4}],"name":"SH"}],"accessors":[{"bufferView":0,"componentType":5123,"count":636,"type":"SCALAR","name":"accessorIndices"},{"bufferView":1,"componentType":5126,"count":636,"max":[0.816326737,0.0306180734,0.816326737],"min":[-0.8162077,0.0,-0.816326737],"type":"VEC3","name":"accessorPositions"},{"bufferView":1,"byteOffset":7632,"componentType":5126,"count":636,"type":"VEC3","name":"accessorNormals"},{"bufferView":2,"componentType":5126,"count":636,"type":"VEC2","name":"accessorUVs"},{"bufferView":0,"byteOffset":1272,"componentType":5123,"count":396,"type":"SCALAR","name":"accessorIndices"},{"bufferView":1,"byteOffset":15264,"componentType":5126,"count":396,"max":[1.79746568,0.0,0.890498459],"min":[-1.80412507,-0.00525331544,-1.015969],"type":"VEC3","name":"accessorPositions"},{"bufferView":1,"byteOffset":20016,"componentType":5126,"count":396,"type":"VEC3","name":"accessorNormals"},{"bufferView":2,"byteOffset":5088,"componentType":5126,"count":396,"type":"VEC2","name":"accessorUVs"},{"bufferView":0,"byteOffset":2064,"componentType":5123,"count":237,"type":"SCALAR","name":"accessorIndices"},{"bufferView":1,"byteOffset":24768,"componentType":5126,"count":237,"max":[1.81630015,0.05379006,1.23822474],"min":[-1.82218528,-0.127947658,-0.416009545],"type":"VEC3","name":"accessorPositions"},{"bufferView":1,"byteOffset":27612,"componentType":5126,"count":237,"type":"VEC3","name":"accessorNormals"},{"bufferView":2,"byteOffset":8256,"componentType":5126,"count":237,"type":"VEC2","name":"accessorUVs"},{"bufferView":0,"byteOffset":2540,"componentType":5123,"count":6831,"type":"SCALAR","name":"accessorIndices"},{"bufferView":1,"byteOffset":30456,"componentType":5126,"count":6831,"max":[6.889274,0.0551028848,0.477520019],"min":[-3.838495,0.0,-1.62814],"type":"VEC3","name":"accessorPositions"},{"bufferView":1,"byteOffset":112428,"componentType":5126,"count":6831,"type":"VEC3","name":"accessorNormals"},{"bufferView":0,"byteOffset":16204,"componentType":5123,"count":2193,"type":"SCALAR","name":"accessorIndices"},{"bufferView":1,"byteOffset":194400,"componentType":5126,"count":2193,"max":[-4.019073,0.0551028848,0.02794],"min":[-6.889273,0.0,-1.65608013],"type":"VEC3","name":"accessorPositions"},{"bufferView":1,"byteOffset":220716,"componentType":5126,"count":2193,"type":"VEC3","name":"accessorNormals"}],"bufferViews":[{"buffer":0,"byteLength":20592,"name":"bufferViewScalar"},{"buffer":0,"byteOffset":20592,"byteLength":247032,"byteStride":12,"name":"bufferViewFloatVec3"},{"buffer":0,"byteOffset":267624,"byteLength":10152,"byteStride":8,"name":"bufferViewFloatVec2"}],"buffers":[{"uri":"techCity.bin","byteLength":277776}],"materials":[{"pbrMetallicRoughness":{"baseColorTexture":{"index":0},"metallicFactor":0.0,"roughnessFactor":0.450053632},"name":"03 - Default"},{"pbrMetallicRoughness":{"baseColorTexture":{"index":1},"metallicFactor":0.0,"roughnessFactor":0.7022211},"name":"09 - Default"},{"pbrMetallicRoughness":{"baseColorTexture":{"index":2},"metallicFactor":0.0,"roughnessFactor":0.450053632},"name":"07 - Default"},{"pbrMetallicRoughness":{"metallicFactor":0.0,"roughnessFactor":0.450053632},"name":"04 - Default"},{"pbrMetallicRoughness":{"baseColorFactor":[1.0,0.0,0.0,1.0],"metallicFactor":0.0,"roughnessFactor":0.450053632},"name":"05 - Default"}],"textures":[{"sampler":0,"source":0,"name":"Box001DiffuseMapUV.jpg"},{"sampler":0,"source":1,"name":"sidewalk_pavement_texture_06.jpg"},{"sampler":0,"source":2,"name":"facade_1.png"}],"images":[{"uri":"./Box001DiffuseMapUV.jpg"},{"uri":"./sidewalk_pavement_texture_06.jpg"},{"uri":"./facade_1.png"}],"samplers":[{"magFilter":9729,"minFilter":9987}]}